<?xml version="1.0" encoding="UTF-8" standalone="no"?>
<!DOCTYPE svg PUBLIC "-//W3C//DTD SVG 1.1//EN" "http://www.w3.org/Graphics/SVG/1.1/DTD/svg11.dtd">
<svg width="100%" height="100%" viewBox="0 0 64 64" version="1.1" xmlns="http://www.w3.org/2000/svg" xmlns:xlink="http://www.w3.org/1999/xlink" xml:space="preserve" xmlns:serif="http://www.serif.com/" style="fill-rule:evenodd;clip-rule:evenodd;stroke-linejoin:round;stroke-miterlimit:2;">
    <g transform="matrix(7.24135,0,0,7.04688,-189.424,-134.784)">
        <path d="M29.784,25.982C29.624,25.982 29.483,25.921 29.362,25.798C29.241,25.675 29.18,25.535 29.18,25.379C29.18,25.109 29.43,24.777 29.93,24.383L31.331,23.328C31.835,22.894 32.087,22.498 32.087,22.139C32.087,21.685 31.777,21.38 31.351,20.997C30.941,20.626 30.602,20.328 30.141,20.328C29.895,20.328 29.583,20.454 29.204,20.706C28.825,20.958 28.59,21.084 28.501,21.084C28.34,21.084 28.203,21.019 28.087,20.89C27.972,20.762 27.915,20.617 27.915,20.457C27.915,20.148 28.213,19.842 28.811,19.537C29.346,19.264 29.79,19.127 30.141,19.127C30.926,19.127 31.639,19.433 32.28,20.047C32.92,20.66 33.241,21.357 33.241,22.139C33.241,22.709 33.057,23.215 32.69,23.656C32.471,23.922 32.065,24.265 31.471,24.687C30.874,25.121 30.458,25.473 30.223,25.742C30.087,25.902 29.94,25.982 29.784,25.982ZM29.462,28.209C29.29,28.209 29.134,28.151 28.996,28.036C28.857,27.921 28.788,27.781 28.788,27.617C28.788,27.375 28.852,27.156 28.981,26.961C29.126,26.742 29.311,26.633 29.538,26.633C29.913,26.633 30.1,26.863 30.1,27.324C30.1,27.539 30.049,27.732 29.948,27.904C29.823,28.107 29.661,28.209 29.462,28.209Z" style="fill-rule:nonzero;"/>
    </g>
</svg>
