<?xml version="1.0" encoding="UTF-8" standalone="no"?><!DOCTYPE svg PUBLIC "-//W3C//DTD SVG 1.1//EN" "http://www.w3.org/Graphics/SVG/1.1/DTD/svg11.dtd">
<svg
  width="100%"
  height="100%"
  viewBox="0 0 267 267"
  version="1.1"
  xmlns="http://www.w3.org/2000/svg"
  xmlns:xlink="http://www.w3.org/1999/xlink"
  xml:space="preserve"
  xmlns:serif="http://www.serif.com/"
  style="
    fill-rule: evenodd;
    clip-rule: evenodd;
    stroke-linejoin: round;
    stroke-miterlimit: 2;
  "
>
  <g>
    <path
      d="M114.735,187.55c-3.752,-0 -7.046,-1.442 -9.882,-4.324c-2.837,-2.882 -4.255,-6.154 -4.255,-9.814c-0,-6.314 5.856,-14.091 17.569,-23.333l32.804,-24.707c11.804,-10.157 17.706,-19.444 17.706,-27.863c-0,-10.614 -4.987,-20.405 -14.961,-29.372c-9.608,-8.693 -19.811,-13.04 -30.608,-13.04c-5.765,0 -13.085,2.951 -21.961,8.853c-8.876,5.902 -14.366,8.853 -16.471,8.853c-3.752,0 -6.977,-1.51 -9.677,-4.529c-2.699,-3.02 -4.049,-6.405 -4.049,-10.157c0,-7.229 7,-14.412 21.001,-21.549c12.536,-6.406 22.921,-9.608 31.157,-9.608c18.392,-0 35.092,7.183 50.098,21.549c15.007,14.366 22.51,30.7 22.51,49c0,13.36 -4.3,25.21 -12.902,35.55c-5.124,6.222 -14.64,14.274 -28.549,24.157c-14,10.157 -23.745,18.392 -29.236,24.706c-3.202,3.752 -6.634,5.628 -10.294,5.628Zm-7.549,52.157c-4.026,0 -7.663,-1.35 -10.912,-4.049c-3.248,-2.699 -4.872,-5.971 -4.872,-9.814c-0,-5.673 1.509,-10.797 4.529,-15.373c3.386,-5.124 7.732,-7.686 13.039,-7.686c8.785,0 13.177,5.399 13.177,16.196c-0,5.033 -1.19,9.563 -3.569,13.589c-2.928,4.758 -6.725,7.137 -11.392,7.137Z"
      style="fill: #fff; fill-rule: nonzero"
    />
    <path
      d="M114.735,187.55c-3.752,-0 -7.046,-1.442 -9.882,-4.324c-2.837,-2.882 -4.255,-6.154 -4.255,-9.814c-0,-6.314 5.856,-14.091 17.569,-23.333l32.804,-24.707c11.804,-10.157 17.706,-19.444 17.706,-27.863c-0,-10.614 -4.987,-20.405 -14.961,-29.372c-9.608,-8.693 -19.811,-13.04 -30.608,-13.04c-5.765,0 -13.085,2.951 -21.961,8.853c-8.876,5.902 -14.366,8.853 -16.471,8.853c-3.752,0 -6.977,-1.51 -9.677,-4.529c-2.699,-3.02 -4.049,-6.405 -4.049,-10.157c0,-7.229 7,-14.412 21.001,-21.549c12.536,-6.406 22.921,-9.608 31.157,-9.608c18.392,-0 35.092,7.183 50.098,21.549c15.007,14.366 22.51,30.7 22.51,49c0,13.36 -4.3,25.21 -12.902,35.55c-5.124,6.222 -14.64,14.274 -28.549,24.157c-14,10.157 -23.745,18.392 -29.236,24.706c-3.202,3.752 -6.634,5.628 -10.294,5.628Zm-7.549,52.157c-4.026,0 -7.663,-1.35 -10.912,-4.049c-3.248,-2.699 -4.872,-5.971 -4.872,-9.814c-0,-5.673 1.509,-10.797 4.529,-15.373c3.386,-5.124 7.732,-7.686 13.039,-7.686c8.785,0 13.177,5.399 13.177,16.196c-0,5.033 -1.19,9.563 -3.569,13.589c-2.928,4.758 -6.725,7.137 -11.392,7.137Z"
      style="fill: #fff; fill-rule: nonzero"
    />
  </g>
</svg>
