<?xml version="1.0" encoding="UTF-8" standalone="no"?><!DOCTYPE svg PUBLIC "-//W3C//DTD SVG 1.1//EN" "http://www.w3.org/Graphics/SVG/1.1/DTD/svg11.dtd"><svg width="100%" height="100%" viewBox="0 0 267 267" version="1.1" xmlns="http://www.w3.org/2000/svg" xmlns:xlink="http://www.w3.org/1999/xlink" xml:space="preserve" xmlns:serif="http://www.serif.com/" style="fill-rule:evenodd;clip-rule:evenodd;stroke-linejoin:round;stroke-miterlimit:2;"><path d="M110.872,199.625c-4.531,0 -8.509,-1.762 -11.935,-5.286c-3.426,-3.525 -5.139,-7.525 -5.139,-12c-0,-7.72 7.073,-17.23 21.218,-28.531l39.618,-30.209c14.256,-12.419 21.384,-23.775 21.384,-34.069c0,-12.978 -6.023,-24.95 -18.068,-35.915c-11.604,-10.629 -23.926,-15.943 -36.966,-15.943c-6.962,-0 -15.803,3.608 -26.523,10.825c-10.72,7.216 -17.35,10.824 -19.892,10.824c-4.531,0 -8.426,-1.846 -11.686,-5.538c-3.261,-3.692 -4.891,-7.832 -4.891,-12.419c0,-8.839 8.454,-17.622 25.363,-26.349c15.14,-7.832 27.683,-11.748 37.629,-11.748c22.212,-0 42.381,8.783 60.505,26.349c18.123,17.566 27.185,37.537 27.185,59.914c0,16.336 -5.194,30.825 -15.582,43.468c-6.188,7.608 -17.682,17.454 -34.479,29.537c-16.908,12.42 -28.678,22.489 -35.309,30.209c-3.867,4.588 -8.012,6.881 -12.432,6.881Zm-9.117,63.775c-4.863,-0 -9.256,-1.651 -13.179,-4.951c-3.923,-3.301 -5.884,-7.301 -5.884,-12c-0,-6.937 1.823,-13.202 5.47,-18.797c4.089,-6.265 9.338,-9.398 15.748,-9.398c10.609,0 15.913,6.601 15.913,19.804c0,6.153 -1.436,11.692 -4.31,16.615c-3.536,5.818 -8.122,8.727 -13.758,8.727Z" style="fill-rule:nonzero;stroke:#fff;stroke-width:4.17px;"/></svg>