<svg width="39.6" height="76.4" xmlns="http://www.w3.org/2000/svg"><path d="M19.9 54.5h-7.8q-.5-1.7-.8-3.7l-.2-3.7q0-4.4 1.4-7.6a13 13 0 0 1 .5-1q1.9-3.4 4.7-6a102.2 102.2 0 0 1 4.9-4.1 93.2 93.2 0 0 1 .7-.6 27 27 0 0 0 3.1-2.9 22.8 22.8 0 0 0 1.6-1.8q1.9-2.6 1.9-6.1a8.2 8.2 0 0 0-2.3-5.7 11 11 0 0 0-.4-.5 9 9 0 0 0-4.5-2.3 13.2 13.2 0 0 0-2.8-.3 14.4 14.4 0 0 0-5.3 1 13.6 13.6 0 0 0-2.1 1 20.6 20.6 0 0 0-4.2 3.4 25.7 25.7 0 0 0-1.8 2.1L0 10.5a34.4 34.4 0 0 1 5.2-5.2A29.1 29.1 0 0 1 9 2.8 20.7 20.7 0 0 1 15.4.5a28.7 28.7 0 0 1 5.3-.5 24.2 24.2 0 0 1 5.2.5 19 19 0 0 1 4.7 1.7A18 18 0 0 1 35 5.5a16.2 16.2 0 0 1 2.1 2.6q2.4 3.7 2.4 8.2 0 5.1-2 8.5-2 3.4-4.9 6l-5.9 5Q24 38.1 22 41.3a11.7 11.7 0 0 0-1.6 3.9q-.4 1.7-.4 3.7v5.6Zm-8 20a6.4 6.4 0 0 0 4.6 1.9 8.6 8.6 0 0 0 .6 0 6.5 6.5 0 0 0 4.2-1.9q1.9-1.8 1.9-4.8a6.2 6.2 0 0 0-.6-2.7 7 7 0 0 0-1.5-2q-2-2-4.6-2a8.8 8.8 0 0 0-1.9.2 6 6 0 0 0-3 1.6 6 6 0 0 0-1.6 2.8 8.6 8.6 0 0 0-.2 2.1q0 2.7 2 4.7a8.3 8.3 0 0 0 0 0Z" vector-effect="non-scaling-stroke" stroke-linecap="round" fill-rule="evenodd" font-size="12" stroke="#000" stroke-width=".9" style="stroke:#000;stroke-width:.25mm;fill:#000"/></svg>